<?xml version="1.0" encoding="utf-8"?>
<!-- Generator: Adobe Illustrator 19.2.0, SVG Export Plug-In . SVG Version: 6.00 Build 0)  -->
<svg version="1.1" id="Layer_1" xmlns="http://www.w3.org/2000/svg" xmlns:xlink="http://www.w3.org/1999/xlink" x="0px" y="0px"
	 viewBox="0 0 428.5 349.3" style="enable-background:new 0 0 428.5 349.3;" xml:space="preserve">
<style type="text/css">
	.st0{opacity:0.68;fill:#BF2026;stroke:#A32B63;stroke-miterlimit:10;enable-background:new    ;}
	.st1{fill:#B62025;}
	.st2{font-family:'Raleway';}
	.st3{font-size:65px;}
	.st4{fill:#696A6D;}
	.st5{font-size:36px;}
</style>
<title>puzzlelogo</title>
<path class="st0" d="M340.3,52.2c5.3,12-4,27.7-20.6,35c-6.4,2.9-13.4,4.1-20.4,3.5l19.7,45l-59.8,26.2c2.7-7.4,2.4-15.6-0.9-22.8
	c-6.4-14.6-22.3-21.8-35.5-16s-18.7,22.4-12.3,37c3.1,7.3,8.9,13,16.2,16.1l-67,29.3l-18.1-41.2c-1.5,0.8-3,1.6-4.5,2.3
	c-16.6,7.2-34.4,3.4-39.6-8.7s4-27.7,20.6-35c1.5-0.7,3.1-1.3,4.7-1.8l-16.5-37.7L172,54.6c-3.1,7.7-2.9,16.2,0.5,23.8
	c6.4,14.6,22.3,21.8,35.5,16s18.7-22.4,12.3-37c-3.2-7.6-9.4-13.5-17.1-16.5l62.4-27.4l18.7,42.6c4.3-5.5,10-9.9,16.4-12.6
	C317.3,36.3,335.1,40.2,340.3,52.2z"/>
</svg>
